#!OML:ASF F:\VICON\USERDATA\INSTALL\rory3\rory3.ASF
:FULLY-SPECIFIED
:DEGREES
1538
root 6.00645 18.2715 -8.59637 365.389 -68.4008 -3.02613
lowerback 13.4098 6.93025 2.79431
upperback 4.35538 9.17903 -4.32874
thorax -1.66235 4.57478 -7.37321
lowerneck -13.7806 12.7978 -7.21552
upperneck 48.2409 19.5683 5.19444
head 19.6978 6.59979 7.23425
rclavicle -1.48095e-013 6.44062e-014
rhumerus -35.9131 -7.90269 -83.4588
rradius 47.7373
rwrist 1.14203
rhand -15.7051 9.10966
rfingers 7.12502
rthumb 10.4847 -20.6089
lclavicle -1.48095e-013 6.44062e-014
lhumerus -44.9459 19.9388 65.4267
lradius 38.258
lwrist -5.57182
lhand -17.407 28.052
lfingers 7.12502
lthumb 8.84259 57.8467
rfemur -10.9797 -2.50112 25.6202
rtibia 30.954
rfoot -8.91105 1.0319
rtoes 6.37597
lfemur -22.2531 -15.2561 -14.5222
ltibia 54.2797
lfoot -3.62764 -13.1887
ltoes -25.1665
1539
root 6.11941 18.2819 -8.62225 365.283 -68.4916 -2.68489
lowerback 13.207 6.89596 2.57629
upperback 4.33487 9.10607 -4.34553
thorax -1.61855 4.53772 -7.23637
lowerneck -13.9396 12.7871 -7.41984
upperneck 48.304 19.5806 5.3342
head 19.72 6.57816 7.34986
rclavicle 8.84592e-014 6.36111e-015
rhumerus -36.1155 -7.89442 -83.3503
rradius 47.5018
rwrist 1.1847
rhand -15.5768 9.27438
rfingers 7.12502
rthumb 10.6084 -20.4379
lclavicle 8.84592e-014 6.36111e-015
lhumerus -44.7628 20.1988 65.1949
lradius 37.5868
lwrist -5.49115
lhand -17.6187 28.2244
lfingers 7.12502
lthumb 8.6383 58.0277
rfemur -11.6828 -2.40346 25.4668
rtibia 31.0573
rfoot -8.72609 0.983441
rtoes 6.09849
lfemur -21.4182 -15.0594 -14.5496
ltibia 54.2885
lfoot -3.37712 -13.6964
ltoes -24.7551
1540
root 6.23358 18.2907 -8.64756 365.021 -68.4988 -2.35426
lowerback 13.1949 6.84096 2.43227
upperback 4.36054 9.01318 -4.35116
thorax -1.62008 4.48943 -7.14977
lowerneck -14.0245 12.7566 -7.59175
upperneck 48.2399 19.5762 5.36631
head 19.6657 6.55929 7.38515
rclavicle 2.10115e-013 -9.22361e-014
rhumerus -36.2342 -8.12929 -83.1549
rradius 47.1174
rwrist 1.23319
rhand -15.4182 9.33539
rfingers 7.12502
rthumb 10.7614 -20.369
lclavicle 2.10115e-013 -9.22361e-014
lhumerus -44.538 20.5469 64.9342
lradius 36.9119
lwrist -5.57423
lhand -17.657 28.2485
lfingers 7.12502
lthumb 8.60138 58.0533
rfemur -12.2022 -2.39223 25.2766
rtibia 31.152
rfoot -8.53953 1.05209
rtoes 7.12353
lfemur -20.3532 -14.849 -14.6073
ltibia 54.1503
lfoot -2.88844 -14.3806
ltoes -23.1851
1541
root 6.35072 18.2921 -8.67106 364.847 -68.458 -2.1764
lowerback 13.2417 6.75809 2.42112
upperback 4.39464 8.90016 -4.36419
thorax -1.62433 4.43269 -7.14884
lowerneck -14.077 12.7345 -7.64373
upperneck 48.1815 19.5608 5.35423
head 19.6367 6.54741 7.38216
rclavicle -1.20464e-013 1.82882e-014
rhumerus -36.4286 -8.42829 -82.9804
rradius 46.8399
rwrist 1.44056
rhand -15.1998 9.3119
rfingers 7.12502
rthumb 10.9721 -20.3814
lclavicle -1.20464e-013 1.82882e-014
lhumerus -44.2403 20.8342 64.6577
lradius 36.1111
lwrist -5.64388
lhand -17.808 28.1506
lfingers 7.12502
lthumb 8.45558 57.9613
rfemur -12.6515 -2.36705 25.1458
rtibia 31.2329
rfoot -8.48907 1.0561
rtoes 8.74461
lfemur -19.1969 -14.594 -14.607
ltibia 53.8442
lfoot -2.34969 -15.2241
ltoes -22.3171
1542
root 6.46749 18.2907 -8.69087 364.449 -68.3643 -1.68698
lowerback 13.153 6.67881 2.36955
upperback 4.4643 8.78542 -4.44201
thorax -1.51402 4.38005 -7.17156
lowerneck -14.2073 12.7009 -7.5602
upperneck 48.207 19.5162 5.32244
head 19.7168 6.52509 7.37346
rclavicle -6.50026e-014 -1.19271e-014
rhumerus -36.5581 -8.70727 -82.8767
rradius 46.6061
rwrist 1.54899
rhand -15.1597 9.19758
rfingers 7.12502
rthumb 11.0107 -20.4936
lclavicle -6.50026e-014 -1.19271e-014
lhumerus -43.8169 21.0697 64.4162
lradius 35.3157
lwrist -5.89628
lhand -18.0731 28.3931
lfingers 7.12502
lthumb 8.1998 58.214
rfemur -13.1429 -2.25275 24.8963
rtibia 31.2774
rfoot -8.45604 0.831484
rtoes 10.3278
lfemur -18.0612 -14.6508 -14.7405
ltibia 53.3478
lfoot -1.61482 -15.9917
ltoes -21.2101
1543
root 6.57346 18.2876 -8.69565 364.117 -68.4757 -1.43966
lowerback 13.0583 6.66364 2.42932
upperback 4.57082 8.77263 -4.45162
thorax -1.34157 4.3816 -7.19046
lowerneck -14.2573 12.6747 -7.5383
upperneck 48.3045 19.5014 5.28211
head 19.815 6.49688 7.37217
rclavicle 1.49089e-014 1.98785e-014
rhumerus -36.7108 -8.8313 -82.713
rradius 46.2722
rwrist 1.43872
rhand -15.3844 9.10036
rfingers 7.12502
rthumb 10.794 -20.6023
lclavicle 1.49089e-014 1.98785e-014
lhumerus -43.5858 21.2711 64.2646
lradius 34.7364
lwrist -6.19328
lhand -18.0029 28.8876
lfingers 7.12502
lthumb 8.26749 58.7058
rfemur -13.3788 -1.98676 24.631
rtibia 31.2309
rfoot -8.31302 0.78875
rtoes 11.8654
lfemur -16.526 -14.7639 -14.9834
ltibia 52.684
lfoot -1.14891 -16.534
ltoes -21.2232
1544
root 6.66896 18.2841 -8.68589 363.998 -68.7893 -1.61624
lowerback 12.9717 6.66412 2.65593
upperback 4.73588 8.80394 -4.37581
thorax -1.09367 4.40983 -7.21133
lowerneck -14.2614 12.6598 -7.67573
upperneck 48.3566 19.5243 5.27594
head 19.8315 6.47349 7.39657
rclavicle 4.29375e-014 -2.70347e-014
rhumerus -36.8651 -8.85879 -82.458
rradius 45.8674
rwrist 1.3102
rhand -15.409 9.19046
rfingers 7.12502
rthumb 10.7703 -20.5134
lclavicle 4.29375e-014 -2.70347e-014
lhumerus -43.612 21.6358 64.0869
lradius 34.4136
lwrist -6.61768
lhand -17.8624 29.0044
lfingers 7.12502
lthumb 8.40316 58.8172
rfemur -13.3634 -1.86644 24.4583
rtibia 31.1178
rfoot -8.23439 1.10912
rtoes 12.0701
lfemur -14.6935 -14.6223 -15.2176
ltibia 51.8988
lfoot -0.944884 -17.0078
ltoes -22.4077
1545
root 6.77189 18.287 -8.69125 363.889 -68.9352 -1.63588
lowerback 12.8816 6.60754 2.63398
upperback 4.84086 8.72864 -4.28591
thorax -0.963936 4.37576 -7.07545
lowerneck -14.3193 12.6729 -7.70159
upperneck 48.3759 19.5885 5.20685
head 19.8675 6.47518 7.38781
rclavicle -1.31397e-013 7.07673e-014
rhumerus -36.9652 -9.0266 -82.169
rradius 45.4531
rwrist 1.48837
rhand -15.2981 9.30942
rfingers 7.12502
rthumb 10.8772 -20.3889
lclavicle -1.31397e-013 7.07673e-014
lhumerus -43.513 21.8993 63.9386
lradius 34.0064
lwrist -6.92324
lhand -18.0953 28.4104
lfingers 7.12502
lthumb 8.17832 58.2322
rfemur -13.5424 -1.77114 24.3243
rtibia 30.9764
rfoot -8.14989 1.22916
rtoes 11.6887
lfemur -13.2309 -14.4667 -15.3051
ltibia 51.0218
lfoot -0.00520059 -17.7074
ltoes -21.2501
1546
root 6.88448 18.2879 -8.70783 363.527 -68.9738 -1.23498
lowerback 12.8536 6.48558 2.24036
upperback 4.78075 8.52183 -4.19891
thorax -1.11598 4.25866 -6.74851
lowerneck -14.2104 12.7493 -7.64606
upperneck 48.4642 19.6984 5.13161
head 19.9131 6.50239 7.35917
rclavicle 5.34731e-014 -1.66979e-014
rhumerus -37.0537 -9.42513 -81.8072
rradius 44.714
rwrist 2.13024
rhand -15.1319 9.75202
rfingers 7.12502
rthumb 11.0376 -19.9378
lclavicle 5.34731e-014 -1.66979e-014
lhumerus -43.5746 22.0917 63.7001
lradius 33.5201
lwrist -6.9366
lhand -18.4051 27.9467
lfingers 7.12502
lthumb 7.87931 57.7799
rfemur -13.8951 -1.56272 24.0663
rtibia 30.8629
rfoot -7.99869 1.1773
rtoes 11.7466
lfemur -11.9676 -14.4313 -15.4443
ltibia 50.0453
lfoot 1.51712 -18.4624
ltoes -18.0623
1547
root 7.00151 18.2832 -8.72127 363.362 -68.9771 -1.03232
lowerback 12.8718 6.32577 2.02815
upperback 4.6254 8.28917 -4.12789
thorax -1.36308 4.12956 -6.5479
lowerneck -13.8809 12.8344 -7.66752
upperneck 48.5366 19.7457 5.17286
head 19.8507 6.52564 7.34942
rclavicle -1.26825e-013 -2.38542e-015
rhumerus -37.3734 -9.48368 -81.521
rradius 44.1577
rwrist 2.39985
rhand -15.1642 9.91893
rfingers 7.12502
rthumb 11.0063 -19.7725
lclavicle -1.26825e-013 -2.38542e-015
lhumerus -43.937 22.2072 63.4023
lradius 33.2857
lwrist -7.07493
lhand -18.3873 28.1208
lfingers 7.12502
lthumb 7.89653 57.9534
rfemur -14.3247 -1.45185 23.8781
rtibia 30.8516
rfoot -7.90633 1.22126
rtoes 11.0441
lfemur -10.6859 -14.4194 -15.529
ltibia 48.9464
lfoot 2.54255 -19.419
ltoes -16.6723
1548
root 7.12003 18.2695 -8.73467 363.246 -68.8986 -0.87653
lowerback 12.8655 6.18174 1.9494
upperback 4.53102 8.09359 -4.06986
thorax -1.50439 4.02557 -6.42888
lowerneck -13.5913 12.8778 -7.70936
upperneck 48.5045 19.7563 5.16849
head 19.7389 6.53882 7.30883
rclavicle 9.14409e-014 -2.06736e-014
rhumerus -37.8585 -9.08742 -81.3431
rradius 44.1717
rwrist 1.96071
rhand -15.661 9.07653
rfingers 7.12502
rthumb 10.5271 -20.6399
lclavicle 9.14409e-014 -2.06736e-014
lhumerus -44.1584 22.111 63.3314
lradius 33.2043
lwrist -7.15092
lhand -18.7257 28.4094
lfingers 7.12502
lthumb 7.56991 58.254
rfemur -14.8236 -1.3294 23.7358
rtibia 30.9735
rfoot -7.89598 1.11495
rtoes 9.09845
lfemur -9.4209 -14.4008 -15.6151
ltibia 47.705
lfoot 3.3381 -20.544
ltoes -16.7585
1549
root 7.23595 18.2507 -8.74599 362.518 -68.8172 -0.0658736
lowerback 12.7598 6.08001 1.71238
upperback 4.55124 7.92829 -4.12888
thorax -1.47121 3.94166 -6.32712
lowerneck -13.5187 12.874 -7.681
upperneck 48.5023 19.714 5.17074
head 19.725 6.52782 7.28994
rclavicle -9.22361e-014 2.78299e-014
rhumerus -38.1088 -9.08081 -81.1858
rradius 44.1035
rwrist 1.71444
rhand -16.4132 7.96643
rfingers 7.12502
rthumb 9.80148 -21.7855
lclavicle -9.22361e-014 2.78299e-014
lhumerus -44.0739 22.0275 63.3205
lradius 33.0947
lwrist -7.00854
lhand -19.0293 28.3353
lfingers 7.12502
lthumb 7.27688 58.1902
rfemur -15.3176 -1.143 23.3112
rtibia 31.1556
rfoot -7.94426 0.92101
rtoes 7.82608
lfemur -8.10149 -14.4574 -16.0399
ltibia 46.3115
lfoot 4.55693 -21.5357
ltoes -15.7893
1550
root 7.35281 18.2364 -8.75589 361.562 -68.8301 0.992907
lowerback 12.6254 6.02574 1.44392
upperback 4.61925 7.81909 -4.25655
thorax -1.35862 3.88805 -6.27934
lowerneck -13.5648 12.8139 -7.63268
upperneck 48.5094 19.5878 5.20006
head 19.7574 6.48332 7.28708
rclavicle -8.50798e-014 2.38542e-014
rhumerus -38.1449 -9.60774 -80.948
rradius 43.7399
rwrist 1.99412
rhand -16.699 7.66579
rfingers 7.12502
rthumb 9.52575 -22.0989
lclavicle -8.50798e-014 2.38542e-014
lhumerus -43.8745 22.1913 63.1985
lradius 32.9781
lwrist -7.68989
lhand -18.9866 28.2886
lfingers 7.12502
lthumb 7.31813 58.142
rfemur -15.8538 -0.981335 22.7623
rtibia 31.3613
rfoot -8.01865 0.836641
rtoes 7.18133
lfemur -6.73644 -14.5842 -16.6028
ltibia 44.7708
lfoot 6.26553 -22.2852
ltoes -12.7226
